{"title":"The Amazing Spider-man(2012) 1080p[Dual Audio][ENG(5.1)-HINDI(5.","uid":7783631,"size":4703149522,"categoryP":"video","categoryS":"hd___movies","magnet":"?xt=urn:btih:5fc62c41f7952bae10f22ac10f5aa280161cc96a&amp;dn=The+Amazing+Spider-man%282012%29+1080p%5BDual+Audio%5D%5BENG%285.1%29-HINDI%285.&amp;tr=udp%3A%2F%2Ftracker.openbittorrent.com%3A80&amp;tr=udp%3A%2F%2Fopen.demonii.com%3A1337&amp;tr=udp%3A%2F%2Ftracker.coppersurfer.tk%3A6969&amp;tr=udp%3A%2F%2Fexodus.desync.com%3A6969","seeders":1,"leechers":0,"uploader":"host92","files":14,"time":1351837840,"description":"Format : Matroska\nFormat version : Version 2\nFile size : 4.34 GiB\nDurati\non : 2h 16mn\nOverall bit rate : 4 559 Kbps\n\nVideo\nID : 1\nFormat : AVC\nFormat/Info : Advanced Video Codec\nFormat profile : &lt;a class=&quot;__cf_email__&quot; href=&quot;/cdn-cgi/l/email-protection&quot; data-cfemail=&quot;4d05242a250d0179637c&quot;&gt;[email&amp;#160;protected]&lt;/a&gt;&lt;script cf-hash='f9e31' type=&quot;text/javascript&quot;&gt;\n/* &lt;![CDATA[ */!function(){try{var t=&quot;currentScript&quot;in document?document.currentScript:function(){for(var t=document.getElementsByTagName(&quot;script&quot;),e=t.length;e--;)if(t[e].getAttribute(&quot;cf-hash&quot;))return t[e]}();if(t&amp;&amp;t.previousSibling){var e,r,n,i,c=t.previousSibling,a=c.getAttribute(&quot;data-cfemail&quot;);if(a){for(e=&quot;&quot;,r=parseInt(a.substr(0,2),16),n=2;a.length-n;n+=2)i=parseInt(a.substr(n,2),16)^r,e+=String.fromCharCode(i);e=document.createTextNode(e),c.parentNode.replaceChild(e,c)}}}catch(u){}}();/* ]]&gt; */&lt;/script&gt;\nFormat settings, CABAC : Yes\nFormat settings, ReFrames : 5 frames\nMuxing mode : Header stripping\nCodec ID : V_MPEG4/ISO/AVC\nDuration : 2h 16mn\nBit rate : 3 250 Kbps\nWidth : 1 920 pixels\nHeight : 800 pixels\nDisplay aspect ratio : 2.40:1\nFrame rate mode : Constant\nFrame rate : 23.976 fps\nColor space : YUV\nChroma subsampling : 4:2:0\nBit depth : 8 bits\nScan type : Progressive\nBits/(Pixel*Frame) : 0.088\nStream size : 3.03 GiB (70%)\nWriting library : x264 core 128 r2216 198a7ea\nDefault : Yes\nForced : No\n\nAudio #1\nID : 2\nFormat : AC-3\nFormat/Info : Audio Coding 3\nMode extension : CM (complete main)\nFormat settings, Endianness : Big\nMuxing mode : Header stripping\nCodec ID : A_AC3\nDuration : 2h 16mn\nBit rate mode : Constant\nBit rate : 640 Kbps\nChannel(s) : 6 channels\nChannel positions : Front: L C R, Side: L R, LFE\nSampling rate : 48.0 KHz\nBit depth : 16 bits\nCompression mode : Lossy\nStream size : 624 MiB (14%)\nTitle : BLURAY~{PHDR}~\nLanguage : Hindi\nDefault : Yes\nForced : No\n\nAudio #2\nID : 3\nFormat : AC-3\nFormat/Info : Audio Coding 3\nMode extension : CM (complete main)\nFormat settings, Endianness : Big\nMuxing mode : Header stripping\nCodec ID : A_AC3\nDuration : 2h 16mn\nBit rate mode : Constant\nBit rate : 640 Kbps\nChannel(s) : 6 channels\nChannel positions : Front: L C R, Side: L R, LFE\nSampling rate : 48.0 KHz\nBit depth : 16 bits\nCompression mode : Lossy\nStream size : 624 MiB (14%)\nTitle : BLURAY~{PHDR}~\nLanguage : English\nDefault : No\nForced : No\n\nText #1\nID : 4\nFormat : PGS\nMuxing mode : zlib\nCodec ID : S_HDMV/PGS\nCodec ID/Info : The same subtitle format used on BDs/HD-DVDs\nTitle : BLURAY~{PHDR}~\nLanguage : Hindi\nDefault : Yes\nForced : No\n\n\nIts Ripped by PHDR so i dont take any credits \nseed till u bleed ","torrent":{"xt":"urn:btih:5fc62c41f7952bae10f22ac10f5aa280161cc96a","amp;dn":"The+Amazing+Spider-man%282012%29+1080p%5BDual+Audio%5D%5BENG%285.1%29-HINDI%285.","amp;tr":["udp%3A%2F%2Ftracker.openbittorrent.com%3A80","udp%3A%2F%2Fopen.demonii.com%3A1337","udp%3A%2F%2Ftracker.coppersurfer.tk%3A6969","udp%3A%2F%2Fexodus.desync.com%3A6969"],"infoHash":"5fc62c41f7952bae10f22ac10f5aa280161cc96a","infoHashBuffer":{"type":"Buffer","data":[95,198,44,65,247,149,43,174,16,242,42,193,15,90,162,128,22,28,201,106]},"announce":[],"urlList":[]}}